<?xml version="1.0" encoding="utf-8"?>
<!-- Generator: Adobe Illustrator 22.0.1, SVG Export Plug-In . SVG Version: 6.00 Build 0)  -->
<svg version="1.1" id="Layer_1" xmlns="http://www.w3.org/2000/svg" xmlns:xlink="http://www.w3.org/1999/xlink" x="0px" y="0px"
	 viewBox="0 0 1080 997.4" style="enable-background:new 0 0 1080 997.4;" xml:space="preserve">
<style type="text/css">
	.st0{clip-path:url(#SVGID_2_);fill:#2E4798;}
	.st1{clip-path:url(#SVGID_2_);fill:#8F181F;}
</style>
<g>
	<defs>
		<rect id="SVGID_1_" width="1080" height="997.4"/>
	</defs>
	<clipPath id="SVGID_2_">
		<use xlink:href="#SVGID_1_"  style="overflow:visible;"/>
	</clipPath>
	<path class="st0" d="M242.6,531v3.5c-9,0-13.3,13.6-4,34l60.6,130c4.8,9.6,9.3,15.2,18.1,15.2v3.5h-59.6v-3.5
		c13,0,8.8-13.8,1.1-31.1h-86.9c-7.7,17.3-12,31.1,1.1,31.1v3.5h-59.6v-3.5c8.5,0,13-5.3,17.8-14.9l60.6-130.3
		c9.6-20.5,5.3-34-3.7-34V531H242.6z M185.4,652.4H245l-29.8-64.3L185.4,652.4z"/>
	<path class="st0" d="M337.5,620.3l58.8-7.4c39.9-5.3,40.1-51.8,0-51.8h-58.8c-0.3-16-2.1-26.6-13.8-26.6V531h72.6
		c74.2,0,82.4,78.7,26.1,104.7l29,42.3c0.3,0.5,0.5,0.8,0.5,1.1l16.5,23.9c5.3,6.4,10.6,10.6,17.5,10.6v3.5h-59.6v-3.5
		c8,0,6.6-5.6,2.1-13.3l-38.3-56.6l-20.7,2.7v32.2c0,21,0,35.1,13.8,35.1v3.5h-59.6v-3.5c13.8,0,13.8-14.1,13.8-35.1V620.3z"/>
	<path class="st0" d="M628,531v43.6h-3.5c0-13.8-14.1-13.8-35.1-13.8h-50v126.5h50c21,0,38.8,0,38.8-13.8h3.7l-4,43.6H493.8v-3.5
		c13.8,0,13.8-14.1,13.8-35.1v-109c0-21,0-35.1-13.8-35.1V531H628z"/>
	<path class="st0" d="M783.6,531v43.6h-3.5c0-13.8-14.1-13.8-35.1-13.8h-50v126.5h50c21,0,38.8,0,38.8-13.8h3.7l-4,43.6H649.3v-3.5
		c13.8,0,13.8-14.1,13.8-35.1v-109c0-21,0-35.1-13.8-35.1V531H783.6z"/>
	<path class="st0" d="M813.1,692.3l10.9-37.5h3.5c6.1,23.9,36.7,38.6,59.6,38.6c14.1,0,35.1-5.3,35.1-22.9c0-6.4-3.2-11.4-8.5-16
		l19.9-23.9c11.7,9.6,19.9,22.6,19.9,40.9c0,36.2-35.6,53.2-67.5,53.2c-27.4,0-55.6-9.8-72.6-32.4H813.1z M941.7,592.6h-3.5
		c-1.1-12.8-23.7-38-56.9-38c-16,0-31.4,5.6-31.4,24.2c0,5.6,3.2,10.1,8.2,13.8l-18.3,24.5c-12.5-9.3-21.3-21.5-21.3-39.3
		c0-36.4,30.3-54.5,63.8-54.5c24.2,0,48.1,10.4,65.4,27.4L941.7,592.6z"/>
	<rect x="539.2" y="618" class="st0" width="83.7" height="20.1"/>
	<rect x="694" y="618" class="st0" width="83.7" height="20.1"/>
	<path class="st1" d="M567.6,403H331.7c-4,6.2-8.7,11.9-14.6,17.3c-19,18.4-42,27.5-69.3,27.5c-27,0-50-8.9-69-26.5
		c-19.6-17.8-29.5-39.7-29.5-65.9v-75.1h35.1v71.6c0,17.6,5.3,32.7,15.5,45.4c12.1,14.3,28,21.6,47.9,21.6
		c19.6,0,35.4-7.3,47.5-21.6c10.3-12.7,15.2-27.8,15.2-45.4v-71.6h35.1v75.1c0,5.7-0.6,11.3-1.6,16.7h28.3c17.7,0,26.4-10,26.4-30
		v-61.8H434v58.9c0,17.6-2.5,28.6-7.1,32.9h33.9c17.7,0,26.4-10,26.4-29.7v-62.1h35.1v58.3c0,12.7-2.5,23.8-7.8,33.5h53.1V403z"/>
	<rect x="560.8" y="372.2" class="st1" width="68.7" height="30.8"/>
	<path class="st1" d="M653.1,462.1h-34.2v-30.2h34.2V462.1z M712.7,354.1c0,32.7-17.4,48.9-51.9,48.9h-36.7v-30.8h29.2
		c11.5,0,18.6-3,22.1-8.9c1.6-3.2,2.5-9.7,2.5-19.4v-63.5h34.8V354.1z M711.8,462.1h-34.2v-30.2h34.2V462.1z"/>
	<path class="st1" d="M828,280.4v98.6c0,48.6-24.6,68.9-78,68.9v-25.9c28.9,0,43.2-12.4,43.2-38.3V280.4H828z"/>
	<path class="st1" d="M917.5,214.7h-53.8v-12.4h12.4c-1.9-5.1-2.8-8.1-2.8-9.5c0-12.7,10.9-21.9,24.2-21.9c8.7,0,15.2,4.1,19.6,11.9
		L906,188c-0.9-4.1-4-5.9-8.7-5.9c-6.5,0-10.6,5.1-10.6,10.3c0,4.6,1.9,8.1,5.6,10h25.2V214.7z M908.8,403h-34.5V228.5h34.5V403z"/>
</g>
</svg>
