<?xml version="1.0" encoding="utf-8"?>
<!-- Generator: Adobe Illustrator 22.0.1, SVG Export Plug-In . SVG Version: 6.00 Build 0)  -->
<svg version="1.1" id="Layer_1" xmlns="http://www.w3.org/2000/svg" xmlns:xlink="http://www.w3.org/1999/xlink" x="0px" y="0px"
	 viewBox="0 0 1080 997.4" style="enable-background:new 0 0 1080 997.4;" xml:space="preserve">
<style type="text/css">
	.st0{clip-path:url(#SVGID_2_);fill:#2E4798;}
	.st1{clip-path:url(#SVGID_2_);fill:#8F181F;}
</style>
<g>
	<defs>
		<rect id="SVGID_1_" width="1080" height="997.4"/>
	</defs>
	<clipPath id="SVGID_2_">
		<use xlink:href="#SVGID_1_"  style="overflow:visible;"/>
	</clipPath>
	<path class="st0" d="M113.4,717.1v-3.5"/>
	<path class="st0" d="M953.4,671.6"/>
	<path class="st1" d="M567.6,403H331.7c-4,6.2-8.7,11.9-14.6,17.3c-19,18.4-42,27.5-69.3,27.5c-27,0-50-8.9-69-26.5
		c-19.6-17.8-29.5-39.7-29.5-65.9v-75.1h35.1v71.6c0,17.6,5.3,32.7,15.5,45.4c12.1,14.3,28,21.6,47.9,21.6
		c19.6,0,35.4-7.3,47.5-21.6c10.3-12.7,15.2-27.8,15.2-45.4v-71.6h35.1v75.1c0,5.7-0.6,11.3-1.6,16.7h28.3c17.7,0,26.4-10,26.4-30
		v-61.8H434v58.9c0,17.6-2.5,28.6-7.1,32.9h33.9c17.7,0,26.4-10,26.4-29.7v-62.1h35.1v58.3c0,12.7-2.5,23.8-7.8,33.5h53.1V403z"/>
	<rect x="560.8" y="372.2" class="st1" width="68.7" height="30.8"/>
	<path class="st1" d="M653.1,462.1h-34.2v-30.2h34.2V462.1z M712.7,354.1c0,32.7-17.4,48.9-51.9,48.9h-36.7v-30.8h29.2
		c11.5,0,18.6-3,22.1-8.9c1.6-3.2,2.5-9.7,2.5-19.4v-63.5h34.8V354.1z M711.8,462.1h-34.2v-30.2h34.2V462.1z"/>
	<path class="st1" d="M828,280.4v98.6c0,48.6-24.6,68.9-78,68.9v-25.9c28.9,0,43.2-12.4,43.2-38.3V280.4H828z"/>
	<path class="st1" d="M917.5,214.7h-53.8v-12.4h12.4c-1.9-5.1-2.8-8.1-2.8-9.5c0-12.7,10.9-21.9,24.2-21.9c8.7,0,15.2,4.1,19.6,11.9
		L906,188c-0.9-4.1-4-5.9-8.7-5.9c-6.5,0-10.6,5.1-10.6,10.3c0,4.6,1.9,8.1,5.6,10h25.2V214.7z M908.8,403h-34.5V228.5h34.5V403z"/>
</g>
</svg>
