<svg version="1.1" id="Layer_1" xmlns="http://www.w3.org/2000/svg" xmlns:xlink="http://www.w3.org/1999/xlink" x="0px" y="0px"
	 viewBox="0 0 1080 997.4" style="enable-background:new 0 0 1080 997.4;" xml:space="preserve">
<style type="text/css">
	.st0{clip-path:url(#SVGID_2_);fill:#2653A4;}
</style>
<g>
	<defs>
		<rect id="SVGID_1_" y="-9" width="1080" height="997.4"/>
	</defs>
	<clipPath id="SVGID_2_">
		<use xlink:href="#SVGID_1_"  style="overflow:visible;"/>
	</clipPath>
	<path class="st0" d="M246.2,386v3.5c-9,0-13.3,13.6-4,34l60.6,130c4.8,9.6,9.3,15.2,18.1,15.2v3.5h-59.6v-3.5
		c13,0,8.8-13.8,1.1-31.1h-86.9c-7.7,17.3-12,31.1,1.1,31.1v3.5H117v-3.5c8.5,0,13-5.3,17.8-14.9l60.6-130.3c9.6-20.5,5.3-34-3.7-34
		V386H246.2z M189,507.4h59.6l-29.8-64.3L189,507.4z"/>
	<path class="st0" d="M341.1,475.3l58.8-7.4c39.9-5.3,40.1-51.8,0-51.8h-58.8c-0.3-16-2.1-26.6-13.8-26.6V386h72.6
		c74.2,0,82.4,78.7,26.1,104.7l29,42.3c0.3,0.5,0.5,0.8,0.5,1.1l16.5,23.9c5.3,6.4,10.6,10.6,17.5,10.6v3.5h-59.6v-3.5
		c8,0,6.6-5.6,2.1-13.3l-38.3-56.6l-20.7,2.7v32.2c0,21,0,35.1,13.8,35.1v3.5h-59.6v-3.5c13.8,0,13.8-14.1,13.8-35.1V475.3z"/>
	<path class="st0" d="M631.6,386v43.6h-3.5c0-13.8-14.1-13.8-35.1-13.8h-50v126.6h50c21,0,38.8,0,38.8-13.8h3.7l-4,43.6H497.4v-3.5
		c13.8,0,13.8-14.1,13.8-35.1v-109c0-21,0-35.1-13.8-35.1V386H631.6z"/>
	<path class="st0" d="M787.2,386v43.6h-3.5c0-13.8-14.1-13.8-35.1-13.8h-50v126.6h50c21,0,38.8,0,38.8-13.8h3.7l-4,43.6H652.9v-3.5
		c13.8,0,13.8-14.1,13.8-35.1v-109c0-21,0-35.1-13.8-35.1V386H787.2z"/>
	<rect x="542.8" y="473" class="st0" width="83.7" height="20.1"/>
	<rect x="697.6" y="473" class="st0" width="83.7" height="20.1"/>
	<path class="st0" d="M951.3,449.6h-3.5c-1.1-12.8-23.7-38-56.9-38c-16,0-31.4,5.6-31.4,24.2c0,5.6,3.2,10.1,8.2,13.8l-18.3,24.5
		c-12.5-9.3-21.3-21.5-21.3-39.3c0-36.4,30.3-54.5,63.8-54.5c24.2,0,48.1,10.4,65.4,27.4L951.3,449.6z"/>
	<path class="st0" d="M822.6,546.3l10.9-37.5h3.5c6.1,23.9,36.7,38.6,59.6,38.6c14.1,0,35.1-5.3,35.1-22.9c0-6.4-3.2-11.4-8.5-16
		l19.9-23.9c11.7,9.6,19.9,22.6,19.9,40.9c0,36.2-35.6,53.2-67.5,53.2c-27.4,0-55.6-9.8-72.6-32.4H822.6z"/>
</g>
</svg>
